# xmcd
#
# Track frame offsets:
#	150
#	23542
#	43504
#	59596
#	87314
#	107881
#	128148
#	148552
#	169799
#	192772
#	214304
#	238095
#	261887
#
# Disc length: 3871 seconds
#
# Revision: 4125827041
# Processed by: cddbd v1.5.2PL0 Copyright (c) Steve Scherf et al.
# Submitted via: EZCDAudioConverter 8.0.2.1
#
DISCID=b90f1d0d
DTITLE=Minh Thuận, Thanh Thanh - Anh Tôi Muộn Màng
DYEAR=2008
DGENRE=World Pop
TTITLE0=Thanh Thanh - Muộn Màng
TTITLE1=Minh Thuận - Hãy sống thật lòng
TTITLE2=Thanh Thanh - Vũ khúc muôn thuở
TTITLE3=Thanh Thanh - Ngàn lời muốn nói
TTITLE4=Minh Thuận, Thanh Thanh - Bài hét xuân cho em
TTITLE5=Thanh Thanh - Vắng chàng
TTITLE6=Minh Thuận - Anh Tôi
TTITLE7=Thanh Thanh - Dĩ vãng buồn
TTITLE8=Minh Thuận, Thanh Thanh - Dĩ vãng
TTITLE9=Thanh Thanh - Xa nhau ngày mưa
TTITLE10=Thanh Thanh - Hát ch người tình nhỏ
TTITLE11=Thanh Thanh - Gánh hàng rong
TTITLE12=Thanh Thanh - Tìm lại lần nữa
EXTD=
EXTT0=
EXTT1=
EXTT2=
EXTT3=
EXTT4=
EXTT5=
EXTT6=
EXTT7=
EXTT8=
EXTT9=
EXTT10=
EXTT11=
EXTT12=
PLAYORDER=
